#!OML:ASF X:\für Bonn\!DataBase\2005_08_12_Daniel\c3d\Daniel.ASF
:FULLY-SPECIFIED
:DEGREES
16
root -0.626822 17.2049 1.18947 171.31 1.35102 -181.595
lowerback 18.3322 -2.12218 0.69711
upperback 6.259 -1.7343 -1.94638
thorax -3.62886 -0.395086 -2.12036
lowerneck 4.41922 -0.222289 -6.79695
upperneck 23.4945 2.92238 -0.72873
head 6.42126 1.86779 1.15625
rclavicle -4.47266e-016 1.05356e-014
rhumerus -23.9512 -11.0064 -89.1112
rradius 1.24982
rwrist 21.4708
rhand -22.6768 9.83402
rfingers 7.12502
rthumb 3.75517 -20.1126
lclavicle -4.47266e-016 1.05356e-014
lhumerus -29.7672 15.8114 82.1081
lradius 35.0132
lwrist -10.7855
lhand -13.3055 -7.21402
lfingers 7.12502
lthumb 12.7987 22.3736
rfemur -18.21 12.7977 13.8169
rtibia 21.817
rfoot -8.81066 -15.8687
rtoes -7.50517
lfemur 16.4297 -6.706 -22.2155
ltibia 26.4423
lfoot -29.5392 3.73377
ltoes -12.4743
17
root -0.59075 17.1942 1.08567 171.138 1.28236 -181.353
lowerback 18.7248 -2.17455 1.11914
upperback 6.38878 -1.67858 -1.8194
thorax -3.7032 -0.348321 -2.23438
lowerneck 4.53781 -0.280494 -6.96182
upperneck 23.384 2.81932 -0.693278
head 6.36794 1.80924 1.18769
rclavicle -1.90336e-014 7.95139e-016
rhumerus -23.7408 -11.2896 -88.9031
rradius 1.23395
rwrist 21.6079
rhand -22.3193 9.38744
rfingers 7.12502
rthumb 4.10047 -20.5528
lclavicle -1.90336e-014 7.95139e-016
lhumerus -29.8621 15.9528 82.3441
lradius 35.2592
lwrist -10.7993
lhand -13.1923 -6.96828
lfingers 7.12502
lthumb 12.9078 22.6125
rfemur -18.1298 11.1883 14.4549
rtibia 22.5852
rfoot -7.99217 -14.402
rtoes -8.69543
lfemur 15.8005 -6.31702 -21.5883
ltibia 28.4382
lfoot -29.4258 3.08839
ltoes -12.724
18
root -0.554581 17.1837 0.98518 170.95 1.19202 -181.11
lowerback 19.1553 -2.2517 1.55072
upperback 6.53702 -1.64214 -1.70276
thorax -3.77759 -0.307267 -2.36096
lowerneck 4.61883 -0.339606 -7.13045
upperneck 23.2775 2.71474 -0.662124
head 6.32256 1.74733 1.21886
rclavicle 1.05853e-014 8.34896e-015
rhumerus -23.566 -11.5578 -88.6834
rradius 1.33548
rwrist 21.8213
rhand -21.9574 8.95123
rfingers 7.12502
rthumb 4.44986 -20.982
lclavicle 1.05853e-014 8.34896e-015
lhumerus -29.9303 16.1256 82.5553
lradius 35.4748
lwrist -10.775
lhand -13.0652 -6.81565
lfingers 7.12502
lthumb 13.0303 22.7574
rfemur -18.0152 9.53908 15.0776
rtibia 23.3224
rfoot -7.27196 -12.9212
rtoes -9.84
lfemur 15.0131 -5.99306 -20.9695
ltibia 30.6642
lfoot -29.2011 2.45704
ltoes -12.9374
19
root -0.51788 17.1737 0.887419 170.752 1.10164 -180.869
lowerback 19.6328 -2.32978 1.96496
upperback 6.67618 -1.60213 -1.57681
thorax -3.88347 -0.263786 -2.46857
lowerneck 4.70266 -0.401762 -7.28328
upperneck 23.1728 2.60951 -0.646222
head 6.27794 1.68585 1.24259
rclavicle -3.926e-015 1.43125e-014
rhumerus -23.3914 -11.8244 -88.4481
rradius 1.43145
rwrist 22.0774
rhand -21.5809 8.48028
rfingers 7.12502
rthumb 4.8135 -21.445
lclavicle -3.926e-015 1.43125e-014
lhumerus -30.0061 16.2439 82.7904
lradius 35.6429
lwrist -10.7159
lhand -12.9865 -6.75393
lfingers 7.12502
lthumb 13.1062 22.8142
rfemur -17.8784 7.98509 15.6617
rtibia 24.0283
rfoot -6.66463 -11.4958
rtoes -10.3223
lfemur 14.0835 -5.65703 -20.3294
ltibia 33.0663
lfoot -28.901 1.81227
ltoes -13.1987
20
root -0.478818 17.1649 0.791922 170.554 1.01339 -180.626
lowerback 20.1133 -2.40575 2.34698
upperback 6.83898 -1.55284 -1.44454
thorax -3.96224 -0.212075 -2.5538
lowerneck 4.75882 -0.460816 -7.42564
upperneck 23.049 2.4965 -0.606798
head 6.23143 1.6203 1.27165
rclavicle -1.18028e-014 8.94531e-016
rhumerus -23.1824 -12.0986 -88.2065
rradius 1.56943
rwrist 22.3307
rhand -21.2135 8.08189
rfingers 7.12502
rthumb 5.16818 -21.8351
lclavicle -1.18028e-014 8.94531e-016
lhumerus -30.0968 16.2865 83.0441
lradius 35.8282
lwrist -10.523
lhand -12.8969 -6.80761
lfingers 7.12502
lthumb 13.1926 22.755
rfemur -17.7439 6.58655 16.2251
rtibia 24.7439
rfoot -6.19682 -10.2049
rtoes -10.5938
lfemur 13.0136 -5.35585 -19.681
ltibia 35.6157
lfoot -28.4408 1.17869
ltoes -13.5314
21
root -0.435545 17.1526 0.700699 170.364 0.931355 -180.314
lowerback 20.63 -2.48075 2.77504
upperback 6.97292 -1.49004 -1.31843
thorax -4.08922 -0.155145 -2.67525
lowerneck 4.92502 -0.53914 -7.45249
upperneck 22.8849 2.35617 -0.611357
head 6.15522 1.5517 1.26451
rclavicle 1.30949e-014 8.54774e-015
rhumerus -23.0978 -12.4222 -87.9759
rradius 1.84687
rwrist 22.6041
rhand -20.7953 7.71613
rfingers 7.12502
rthumb 5.57197 -22.1906
lclavicle 1.30949e-014 8.54774e-015
lhumerus -30.2083 16.3159 83.2245
lradius 35.938
lwrist -10.4171
lhand -12.8211 -6.97528
lfingers 7.12502
lthumb 13.2656 22.5826
rfemur -17.6307 5.39108 16.8401
rtibia 25.4567
rfoot -5.88554 -9.1297
rtoes -10.63
lfemur 11.8605 -5.04446 -18.906
ltibia 38.2364
lfoot -27.7789 0.508244
ltoes -13.7641
22
root -0.392182 17.1341 0.615025 170.162 0.853339 -179.96
lowerback 21.197 -2.58199 3.18676
upperback 7.12898 -1.44624 -1.15726
thorax -4.21605 -0.103516 -2.74564
lowerneck 5.0484 -0.586075 -7.48121
upperneck 22.679 2.24768 -0.618409
head 6.07151 1.49411 1.25765
rclavicle -7.57867e-015 1.39149e-015
rhumerus -22.8614 -12.6585 -87.7174
rradius 1.97417
rwrist 22.9958
rhand -20.4382 7.44392
rfingers 7.12502
rthumb 5.91677 -22.4535
lclavicle -7.57867e-015 1.39149e-015
lhumerus -30.2887 16.339 83.448
lradius 36.1115
lwrist -10.2748
lhand -12.7386 -7.10108
lfingers 7.12502
lthumb 13.3452 22.4516
rfemur -17.5447 4.33669 17.4794
rtibia 26.1972
rfoot -5.67529 -8.19071
rtoes -10.4653
lfemur 10.6315 -4.70455 -18.0544
ltibia 40.9075
lfoot -26.8974 -0.209664
ltoes -13.7857
23
root -0.350618 17.1163 0.530492 169.945 0.750813 -179.681
lowerback 21.7759 -2.66986 3.51632
upperback 7.27491 -1.39544 -1.0172
thorax -4.35557 -0.0484525 -2.79392
lowerneck 5.24274 -0.657322 -7.44433
upperneck 22.4792 2.11391 -0.65305
head 5.97949 1.43144 1.23002
rclavicle 9.92681e-015 -4.96962e-017
rhumerus -22.6512 -12.9185 -87.4112
rradius 2.09546
rwrist 23.4145
rhand -20.1255 7.33824
rfingers 7.12502
rthumb 6.21862 -22.5505
lclavicle 9.92681e-015 -4.96962e-017
lhumerus -30.4105 16.3918 83.6617
lradius 36.2882
lwrist -10.2455
lhand -12.6456 -7.26877
lfingers 7.12502
lthumb 13.4348 22.278
rfemur -17.4674 3.43317 17.9951
rtibia 26.9761
rfoot -5.52906 -7.38741
rtoes -10.0722
lfemur 9.40813 -4.42349 -17.3303
ltibia 43.5488
lfoot -25.8421 -0.873408
ltoes -13.5871
24
root -0.31325 17.0953 0.448934 169.74 0.645212 -179.475
lowerback 22.3046 -2.7623 3.77729
upperback 7.44454 -1.35971 -0.905724
thorax -4.44195 0.00253568 -2.83068
lowerneck 5.49176 -0.734914 -7.28256
upperneck 22.209 1.97443 -0.788594
head 5.85703 1.36943 1.14773
rclavicle -1.83876e-015 -8.19987e-016
rhumerus -22.3638 -13.1512 -87.1206
rradius 2.18044
rwrist 23.8533
rhand -19.8511 7.26979
rfingers 7.12502
rthumb 6.48354 -22.611
lclavicle -1.83876e-015 -8.19987e-016
lhumerus -30.4844 16.3648 83.9041
lradius 36.4561
lwrist -10.1398
lhand -12.6063 -7.34269
lfingers 7.12502
lthumb 13.4727 22.2016
rfemur -17.4493 2.54633 18.3977
rtibia 27.791
rfoot -5.40723 -6.61406
rtoes -9.29281
lfemur 8.14258 -4.14593 -16.7092
ltibia 46.1578
lfoot -24.638 -1.47022
ltoes -13.1192
25
root -0.27831 17.073 0.370882 169.559 0.547165 -179.286
lowerback 22.8211 -2.85177 4.02291
upperback 7.62688 -1.31663 -0.805532
thorax -4.50581 0.0598759 -2.87318
lowerneck 5.67946 -0.815191 -7.10214
upperneck 21.9745 1.83319 -0.901032
head 5.75552 1.30707 1.07137
rclavicle 6.95669e-015 -8.26043e-015
rhumerus -22.0369 -13.4024 -86.8458
rradius 2.26383
rwrist 24.3512
rhand -19.679 7.26934
rfingers 7.12502
rthumb 6.64972 -22.6062
lclavicle 6.95669e-015 -8.26043e-015
lhumerus -30.505 16.4139 84.1405
lradius 36.5701
lwrist -10.1605
lhand -12.5173 -7.50503
lfingers 7.12502
lthumb 13.5584 22.0335
rfemur -17.4786 1.74952 18.754
rtibia 28.6084
rfoot -5.33693 -5.93025
rtoes -8.62171
lfemur 6.8461 -3.88285 -16.1327
ltibia 48.7036
lfoot -23.2887 -1.94049
ltoes -12.471
26
root -0.244794 17.0516 0.295375 169.367 0.425265 -179.116
lowerback 23.3795 -2.96145 4.25984
upperback 7.80307 -1.29382 -0.718629
thorax -4.597 0.108419 -2.91994
lowerneck 5.89513 -0.885111 -6.91478
upperneck 21.6841 1.69478 -1.01676
head 5.63123 1.24542 0.992254
rclavicle 1.25669e-014 -1.2424e-015
rhumerus -21.6818 -13.6412 -86.5845
rradius 2.32291
rwrist 24.8857
rhand -19.5114 7.2975
rfingers 7.12502
rthumb 6.81153 -22.5729
lclavicle 1.25669e-014 -1.2424e-015
lhumerus -30.562 16.381 84.4055
lradius 36.7508
lwrist -10.1756
lhand -12.4673 -7.52015
lfingers 7.12502
lthumb 13.6067 22.0152
rfemur -17.4902 0.981631 19.0655
rtibia 29.4198
rfoot -5.31355 -5.29064
rtoes -7.77361
lfemur 5.55515 -3.66219 -15.6141
ltibia 51.202
lfoot -21.7805 -2.25721
ltoes -11.6925
27
root -0.211294 17.032 0.222689 169.198 0.310614 -178.986
lowerback 23.9452 -3.05335 4.4561
upperback 7.97332 -1.25346 -0.651008
thorax -4.69427 0.165724 -2.9695
lowerneck 6.08601 -0.967405 -6.69998
upperneck 21.4065 1.53829 -1.11474
head 5.51499 1.17668 0.914688
rclavicle 5.97596e-015 1.09332e-015
rhumerus -21.2456 -13.9323 -86.3884
rradius 2.26751
rwrist 25.441
rhand -19.4863 7.42689
rfingers 7.12502
rthumb 6.83574 -22.4428
lclavicle 5.97596e-015 1.09332e-015
lhumerus -30.5781 16.2829 84.6614
lradius 36.8808
lwrist -10.1989
lhand -12.3808 -7.52169
lfingers 7.12502
lthumb 13.69 22.008
rfemur -17.5228 0.298331 19.3304
rtibia 30.2041
rfoot -5.36769 -4.72934
rtoes -7.13733
lfemur 4.23249 -3.41893 -15.1323
ltibia 53.6507
lfoot -20.2699 -2.41819
ltoes -10.7048
28
root -0.17779 17.0163 0.152119 169.026 0.202532 -178.835
lowerback 24.5277 -3.16437 4.68509
upperback 8.15949 -1.22013 -0.599598
thorax -4.78173 0.223822 -3.05401
lowerneck 6.22362 -1.04064 -6.50094
upperneck 21.1403 1.38478 -1.15995
head 5.41016 1.10783 0.857513
rclavicle 1.20513e-014 4.47266e-016
rhumerus -20.7827 -14.2326 -86.2408
rradius 2.29591
rwrist 26.0145
rhand -19.4225 7.42222
rfingers 7.12502
rthumb 6.89736 -22.4454
lclavicle 1.20513e-014 4.47266e-016
lhumerus -30.5679 16.1739 84.9107
lradius 37.0361
lwrist -10.2358
lhand -12.3389 -7.50082
lfingers 7.12502
lthumb 13.7304 22.0262
rfemur -17.5257 -0.321786 19.6094
rtibia 30.9355
rfoot -5.42886 -4.22199
rtoes -6.65177
lfemur 2.92642 -3.16415 -14.6406
ltibia 56.0237
lfoot -18.8079 -2.40278
ltoes -10.1043
